# xmcd
#
# Track frame offsets: 
#        150
#        19645
#        37752
#        60840
#        79550
#        99657
#        116042
#        131157
#        152800
#        172675
#        196475
#        214490
#        233250
#
# Disc length: 3425 seconds
#
# Revision: 0
# Processed by: cddbd v1.5.1PL0 Copyright (c) Steve Scherf et al.
# Submitted via: ExactAudioCopy v0.95a5
#
DISCID=990d5f0d
DTITLE=Queen Bee and Snake's Blues Quartet - A
DYEAR=1998
DGENRE=Blues
TTITLE0=Soulful Dress
TTITLE1=Don't Let It Go
TTITLE2=We Were Never Real
TTITLE3=Get Off
TTITLE4=Get What You Want
TTITLE5=Can I Go Home
TTITLE6=Big Kiss
TTITLE7=Life By The Drop
TTITLE8=Evil 2 Evil (feat. Earl Green)
TTITLE9=Today I Sing The Blues
TTITLE10='Round 1oo
TTITLE11=It's Got To Move
TTITLE12=QB
EXTD=
EXTT0=
EXTT1=
EXTT2=
EXTT3=
EXTT4=
EXTT5=
EXTT6=
EXTT7=
EXTT8=
EXTT9=
EXTT10=
EXTT11=
EXTT12=
PLAYORDER=
